<?xml version="1.0" encoding="UTF-8"?>
<svg width="18px" height="20px" viewBox="0 0 18 20" version="1.1" xmlns="http://www.w3.org/2000/svg" xmlns:xlink="http://www.w3.org/1999/xlink">
    <!-- Generator: Sketch 62 (91390) - https://sketch.com -->
    <title>profile</title>
    <desc>Created with Sketch.</desc>
    <g id="design" stroke="none" stroke-width="1" fill="none" fill-rule="evenodd">
        <g id="SP_top" transform="translate(-275.000000, -83.000000)" fill="#767676" fill-rule="nonzero">
            <g id="header" transform="translate(0.000000, 70.000000)">
                <g id="profile" transform="translate(268.000000, 7.000000)">
                    <path d="M16.5,6 C13.4673,6 11,8.4673 11,11.5 C11,14.5327 13.4673,17 16.5,17 C19.5327,17 22,14.5327 22,11.5 C22,8.4673 19.5327,6 16.5,6 Z M16.5,15.7777778 C14.1412333,15.7777778 12.2222222,13.8587667 12.2222222,11.5 C12.2222222,9.14123333 14.1412333,7.22222222 16.5,7.22222222 C18.8587667,7.22222222 20.7777778,9.14123333 20.7777778,11.5 C20.7777778,13.8587667 18.8587667,15.7777778 16.5,15.7777778 Z" id="Shape"></path>
                    <path d="M22.71864,20.1960377 C21.24024,18.7798868 19.28036,18 17.2,18 L14.8,18 C12.71968,18 10.75976,18.7798868 9.28136,20.1960377 C7.8102,21.6052453 7,23.4653962 7,25.4339623 C7,25.746566 7.26864,26 7.6,26 L24.4,26 C24.73136,26 25,25.746566 25,25.4339623 C25,23.4653962 24.1898,21.6052453 22.71864,20.1960377 Z M8.2264,24.8679245 C8.527,21.6571321 11.36044,19.1320755 14.8,19.1320755 L17.2,19.1320755 C20.63956,19.1320755 23.473,21.6571321 23.7736,24.8679245 L8.2264,24.8679245 Z" id="Shape"></path>
                </g>
            </g>
        </g>
    </g>
</svg>